<?xml version="1.0" standalone="no"?>
<!DOCTYPE svg PUBLIC "-//W3C//DTD SVG 20010904//EN"
 "http://www.w3.org/TR/2001/REC-SVG-20010904/DTD/svg10.dtd">
<svg version="1.0" xmlns="http://www.w3.org/2000/svg"
 width="1280.000000pt" height="1128.000000pt" viewBox="0 0 1280.000000 1128.000000"
 preserveAspectRatio="xMidYMid meet">
<metadata>
Created by potrace 1.15, written by Peter Selinger 2001-2017
</metadata>
<g transform="translate(0.000000,1128.000000) scale(0.100000,-0.100000)"
fill="#000000" stroke="none">
<path d="M6303 11266 c-76 -18 -188 -75 -247 -127 -24 -21 -64 -69 -89 -106
-25 -38 -558 -957 -1185 -2043 -627 -1086 -1946 -3372 -2932 -5080 -1166
-2019 -1802 -3129 -1818 -3175 -103 -293 59 -608 368 -712 53 -17 251 -18
5978 -21 5276 -2 5931 0 5989 13 152 35 295 145 366 281 91 175 89 350 -7 529
-38 72 -450 793 -3096 5415 -433 756 -1225 2140 -1760 3075 -535 935 -990
1723 -1012 1752 -64 84 -169 155 -277 189 -69 22 -205 26 -278 10z m261 -196
c118 -45 127 -57 534 -770 355 -620 1584 -2769 3202 -5595 422 -737 1108
-1936 1525 -2665 470 -821 766 -1348 778 -1385 53 -169 -39 -362 -211 -443
l-57 -27 -5885 -3 c-3750 -1 -5908 1 -5948 7 -86 13 -147 45 -213 111 -75 74
-102 144 -103 260 0 66 4 95 21 132 12 26 974 1698 2139 3715 1165 2017 2487
4309 2940 5093 552 957 837 1442 868 1477 48 53 128 100 195 114 55 12 151 2
215 -21z"/>
<path d="M6368 10911 c-59 -19 -98 -54 -142 -124 -86 -140 -5839 -10113 -5854
-10147 -9 -22 -13 -55 -10 -91 5 -73 40 -128 105 -166 l48 -28 5865 -3 c4394
-2 5876 0 5907 9 96 26 160 119 151 222 -5 59 238 -370 -2573 4542 -532 930
-1476 2579 -2097 3665 -621 1086 -1145 1998 -1164 2026 -19 28 -52 60 -74 73
-44 25 -121 35 -162 22z"/>
</g>
</svg>
