<svg width="22" height="22" viewBox="0 0 22 22" fill="none" xmlns="http://www.w3.org/2000/svg"><path d="M2.07162 0.166504H19.9297C20.9797 0.166504 21.834 1.02077 21.834 2.0708V19.9289C21.834 20.9789 20.9797 21.8332 19.9297 21.8332H2.07162C1.02159 21.8332 0.16732 20.9789 0.16732 19.9289V2.0708C0.16732 1.02077 1.02159 0.166504 2.07162 0.166504ZM1.43685 2.0708V10.3651H10.3659V1.43604H2.07162C1.72161 1.43604 1.43685 1.72079 1.43685 2.0708ZM19.9297 1.43604H11.6354V10.3651H20.5645V2.0708C20.5645 1.72079 20.2797 1.43604 19.9297 1.43604ZM20.5645 19.9289V11.6346H11.6354V20.5636H19.9297C20.2797 20.5636 20.5645 20.2789 20.5645 19.9289ZM2.07162 20.5636H10.3659V11.6346H1.43685V19.9289C1.43685 20.2789 1.72161 20.5636 2.07162 20.5636Z" fill="#0A2896"></path><path d="M17.9824 6.55664H16.7129V7.82617C16.7129 8.17673 16.4287 8.46094 16.0781 8.46094C15.7276 8.46094 15.4434 8.17673 15.4434 7.82617V6.55664H14.1738C13.8233 6.55664 13.5391 6.27243 13.5391 5.92188C13.5391 5.57132 13.8233 5.28711 14.1738 5.28711H15.4434V4.01758C15.4434 3.66702 15.7276 3.38281 16.0781 3.38281C16.4287 3.38281 16.7129 3.66702 16.7129 4.01758V5.28711H17.9824C18.333 5.28711 18.6172 5.57132 18.6172 5.92188C18.6172 6.27243 18.333 6.55664 17.9824 6.55664Z" fill="#0A2896"></path><path d="M15.1796 16.0779L14.2819 15.1803C14.034 14.9324 14.034 14.5305 14.2819 14.2826C14.5298 14.0347 14.9317 14.0347 15.1796 14.2826L16.0773 15.1803L16.975 14.2826C17.2228 14.0347 17.6248 14.0347 17.8727 14.2826C18.1206 14.5305 18.1206 14.9324 17.8727 15.1803L16.975 16.0779L17.8727 16.9756C18.1206 17.2235 18.1206 17.6254 17.8727 17.8733C17.6248 18.1212 17.2229 18.1212 16.975 17.8733L16.0773 16.9756L15.1796 17.8733C14.9317 18.1212 14.5298 18.1212 14.2819 17.8733C14.034 17.6254 14.034 17.2235 14.2819 16.9756L15.1796 16.0779Z" fill="#0A2896"></path><path d="M4.01758 14.1738H7.82617C8.17673 14.1738 8.46094 14.458 8.46094 14.8086C8.46094 15.1592 8.17673 15.4434 7.82617 15.4434H4.01758C3.66702 15.4434 3.38281 15.1592 3.38281 14.8086C3.38281 14.458 3.66702 14.1738 4.01758 14.1738Z" fill="#0A2896"></path><path d="M4.01758 16.7129H7.82617C8.17673 16.7129 8.46094 16.9971 8.46094 17.3477C8.46094 17.6982 8.17673 17.9824 7.82617 17.9824H4.01758C3.66702 17.9824 3.38281 17.6982 3.38281 17.3477C3.38281 16.9971 3.66702 16.7129 4.01758 16.7129Z" fill="#0A2896"></path><path d="M7.82617 6.55664H4.01758C3.66702 6.55664 3.38281 6.27243 3.38281 5.92188C3.38281 5.57132 3.66702 5.28711 4.01758 5.28711H7.82617C8.17673 5.28711 8.46094 5.57132 8.46094 5.92188C8.46094 6.27243 8.17673 6.55664 7.82617 6.55664Z" 
fill="#0A2896"></path></svg>